<mxfile host="app.diagrams.net" modified="2023-12-01T03:43:17.006Z" agent="Mozilla/5.0 (Windows NT 10.0; Win64; x64) AppleWebKit/537.36 (KHTML, like Gecko) Chrome/119.0.0.0 Safari/537.36 Edg/119.0.0.0" etag="fLb5cOLPonxGHKkb_DwD" version="22.1.5" type="github">
  <diagram name="Page-1" id="YsQ680oATsr767N0BTKS">
    <mxGraphModel dx="1200" dy="1312" grid="1" gridSize="10" guides="1" tooltips="1" connect="1" arrows="1" fold="1" page="1" pageScale="1" pageWidth="850" pageHeight="1100" math="0" shadow="0">
      <root>
        <mxCell id="0" />
        <mxCell id="1" parent="0" />
        <mxCell id="2" value="n = 6&#xa;k = 2" style="ellipse;aspect=fixed;strokeWidth=2;whiteSpace=wrap;" parent="1" vertex="1">
          <mxGeometry width="109" height="109" as="geometry" />
        </mxCell>
        <mxCell id="_0G47Z2A2_6UaeAVVYh6-2" value="1" style="ellipse;whiteSpace=wrap;html=1;aspect=fixed;" vertex="1" parent="1">
          <mxGeometry x="44.5" y="-30" width="20" height="20" as="geometry" />
        </mxCell>
        <mxCell id="_0G47Z2A2_6UaeAVVYh6-3" value="2" style="ellipse;whiteSpace=wrap;html=1;aspect=fixed;" vertex="1" parent="1">
          <mxGeometry x="109" width="20" height="20" as="geometry" />
        </mxCell>
        <mxCell id="_0G47Z2A2_6UaeAVVYh6-4" value="6" style="ellipse;whiteSpace=wrap;html=1;aspect=fixed;" vertex="1" parent="1">
          <mxGeometry x="-20" width="20" height="20" as="geometry" />
        </mxCell>
        <mxCell id="_0G47Z2A2_6UaeAVVYh6-5" value="3" style="ellipse;whiteSpace=wrap;html=1;aspect=fixed;" vertex="1" parent="1">
          <mxGeometry x="110" y="80" width="20" height="20" as="geometry" />
        </mxCell>
        <mxCell id="_0G47Z2A2_6UaeAVVYh6-6" value="5" style="ellipse;whiteSpace=wrap;html=1;aspect=fixed;" vertex="1" parent="1">
          <mxGeometry x="-20" y="80" width="20" height="20" as="geometry" />
        </mxCell>
        <mxCell id="_0G47Z2A2_6UaeAVVYh6-7" value="4" style="ellipse;whiteSpace=wrap;html=1;aspect=fixed;" vertex="1" parent="1">
          <mxGeometry x="44.5" y="120" width="20" height="20" as="geometry" />
        </mxCell>
        <mxCell id="_0G47Z2A2_6UaeAVVYh6-8" value="" style="rounded=0;whiteSpace=wrap;html=1;" vertex="1" parent="1">
          <mxGeometry x="-80" y="-70" width="260" height="30" as="geometry" />
        </mxCell>
        <mxCell id="_0G47Z2A2_6UaeAVVYh6-9" value="1" style="ellipse;whiteSpace=wrap;html=1;aspect=fixed;" vertex="1" parent="1">
          <mxGeometry x="-30" y="-65" width="20" height="20" as="geometry" />
        </mxCell>
        <mxCell id="_0G47Z2A2_6UaeAVVYh6-10" value="4" style="ellipse;whiteSpace=wrap;html=1;aspect=fixed;" vertex="1" parent="1">
          <mxGeometry x="60" y="-65" width="20" height="20" as="geometry" />
        </mxCell>
        <mxCell id="_0G47Z2A2_6UaeAVVYh6-11" value="5" style="ellipse;whiteSpace=wrap;html=1;aspect=fixed;" vertex="1" parent="1">
          <mxGeometry x="90" y="-65" width="20" height="20" as="geometry" />
        </mxCell>
        <mxCell id="_0G47Z2A2_6UaeAVVYh6-12" value="6" style="ellipse;whiteSpace=wrap;html=1;aspect=fixed;" vertex="1" parent="1">
          <mxGeometry x="119" y="-65" width="20" height="20" as="geometry" />
        </mxCell>
        <mxCell id="_0G47Z2A2_6UaeAVVYh6-13" value="2" style="ellipse;whiteSpace=wrap;html=1;aspect=fixed;" vertex="1" parent="1">
          <mxGeometry y="-65" width="20" height="20" as="geometry" />
        </mxCell>
        <mxCell id="_0G47Z2A2_6UaeAVVYh6-14" value="3" style="ellipse;whiteSpace=wrap;html=1;aspect=fixed;" vertex="1" parent="1">
          <mxGeometry x="30" y="-65" width="20" height="20" as="geometry" />
        </mxCell>
        <mxCell id="_0G47Z2A2_6UaeAVVYh6-16" value="pointer" style="rounded=1;whiteSpace=wrap;html=1;fillColor=#fff2cc;strokeColor=#d6b656;" vertex="1" parent="1">
          <mxGeometry x="34.5" y="-10" width="40" height="10" as="geometry" />
        </mxCell>
      </root>
    </mxGraphModel>
  </diagram>
</mxfile>
